# xmcd
#
# Track frame offsets: 
#        150
#        11927
#        31295
#        43777
#        57957
#        70590
#        82302
#        98800
#        110865
#        121657
#
# Disc length: 1828 seconds
#
# Revision: 6
# Processed by: cddbd v1.5.2PL0 Copyright (c) Steve Scherf et al.
# Submitted via: ExactAudioCopy v0.99pb4
#
DISCID=8707220a
DTITLE=Kenny Chesney - All I Need To Know
DYEAR=1995
DGENRE=Country
TTITLE0=Fall In Love
TTITLE1=Grandpa Told Me So
TTITLE2=The Bigger The Fool (The Harder They Fall)
TTITLE3=All I Need To Know 
TTITLE4=Honey Would You Stand By Me 
TTITLE5=Someone Else's Hog 
TTITLE6=Me And You 
TTITLE7=Between Midnight And Daylight
TTITLE8=Paris, Tennessee
TTITLE9=The Tin Man 
EXTD=
EXTT0=
EXTT1=
EXTT2=
EXTT3=
EXTT4=
EXTT5=
EXTT6=
EXTT7=
EXTT8=
EXTT9=
PLAYORDER=
